<?xml version="1.0" encoding="utf-8"?>
<!-- Generator: Adobe Illustrator 25.4.1, SVG Export Plug-In . SVG Version: 6.00 Build 0)  -->
<svg version="1.1" id="Capa_1" xmlns="http://www.w3.org/2000/svg" xmlns:xlink="http://www.w3.org/1999/xlink" x="0px" y="0px"
	 viewBox="0 0 80 80" style="enable-background:new 0 0 80 80;" xml:space="preserve">
<style type="text/css">
	.st0{fill:#009458;}
	.st1{fill:#55B890;}
	.st2{fill:#AADBC7;}
	.st3{fill:#333333;}
</style>
<g>
	<g>
		<path class="st0" d="M80,80H62c0-35.49-32.73-62-62-62V0c19.52,0,39.51,8.38,54.83,22.99C71.06,38.46,80,58.7,80,80z"/>
		<path class="st1" d="M59,80H41c0-23.47-21.65-41-41-41V21C27.91,21,59,45.23,59,80z"/>
		<path class="st2" d="M37.63,80h-18C19.63,68.94,9.08,60.37,0,60.37v-18C20.05,42.37,37.63,59.95,37.63,80z"/>
	</g>
	<g>
		<path class="st3" d="M33.98,59.68c-7.66,0-14.3-3.74-17.04-9.68c-0.32-0.69-0.02-1.5,0.67-1.81c0.69-0.32,1.5-0.02,1.81,0.67
			c2.37,5.13,8.38,8.32,15.24,8.08c4.97-0.16,11.05-2.35,13.22-8c0.27-0.71,1.07-1.05,1.77-0.79c0.7,0.27,1.06,1.06,0.79,1.77
			c-2.22,5.77-8.23,9.5-15.68,9.75C34.5,59.68,34.24,59.68,33.98,59.68z"/>
		<g>
			<circle class="st3" cx="46.18" cy="35" r="5"/>
			<circle class="st3" cx="21.18" cy="35" r="5"/>
		</g>
	</g>
</g>
</svg>
